<?xml version="1.0" encoding="utf-8"?>
<!-- Generator: Adobe Illustrator 27.9.0, SVG Export Plug-In . SVG Version: 6.00 Build 0)  -->
<svg version="1.1" id="Capa_1" xmlns="http://www.w3.org/2000/svg" xmlns:xlink="http://www.w3.org/1999/xlink" x="0px" y="0px"
	 viewBox="0 0 21.7 21.8" style="enable-background:new 0 0 21.7 21.8;" xml:space="preserve">
<style type="text/css">
	.st0{fill:#FFFFFF;}
	.st1{fill:#00A313;}
</style>
<g>
	<path class="st0" d="M0.5,20c-0.2,0.6-0.3,1.2-0.5,1.8c0.1-0.1,0.1-0.1,0.2-0.1c1.8-0.5,3.5-0.9,5.3-1.4c0.2-0.1,0.3-0.1,0.4,0
		c2.7,1.3,5.4,1.6,8.2,0.7c5.7-1.7,8.9-7.8,7.1-13.4C19.3,1.2,12-1.9,6,1.2C0.6,4-1.4,10.7,1.5,16c0,0.1,0,0.3,0,0.4
		C1.2,17.6,0.9,18.8,0.5,20z M9.4,1.9C14.2,1,18.9,4.2,19.9,9c1,4.9-2.2,9.5-7,10.5c-2.3,0.5-4.4,0.1-6.4-1.1
		c-0.2-0.1-0.3-0.1-0.5-0.1c-1.1,0.2-2.1,0.5-3.2,0.8c0.3-0.8,0.4-1.6,0.7-2.4c0.2-0.6,0.1-1-0.2-1.6C0.2,9.8,3.4,3,9.4,1.9z"/>
	<path class="st0" d="M6.8,11.2c1.5,2.1,3.4,3.8,6,4.5c0.7,0.2,1.4,0.3,2.1,0c1.2-0.5,1.6-1,1.8-2.2c0-0.1-0.1-0.3-0.2-0.3
		c-0.8-0.4-1.5-0.8-2.3-1.1c-0.3-0.1-0.4,0-0.6,0.2c-0.3,0.3-0.5,0.7-0.8,1c-0.1,0.1-0.3,0.2-0.5,0.1c-1.6-0.7-2.8-1.7-3.7-3.2
		c-0.2-0.3-0.2-0.4,0-0.6S9,9.1,9.2,8.8c0.2-0.2,0.2-0.4,0.1-0.6C9,7.6,8.7,6.9,8.5,6.3C8.3,5.9,8.1,5.6,7.6,5.7c-0.4,0-0.7,0-1,0.3
		C5.7,6.8,5.4,7.8,5.7,9C5.9,9.8,6.3,10.5,6.8,11.2z"/>
	<path class="st1" d="M3.5,16.7c-0.3,0.8-0.4,1.6-0.7,2.4c1.1-0.3,2.1-0.6,3.2-0.8c0.2,0,0.3,0,0.5,0.1c2,1.2,4.1,1.6,6.4,1.1
		c4.8-1,8-5.6,7-10.5c-1-4.8-5.7-8-10.5-7.1C3.4,3,0.2,9.8,3.3,15.1C3.6,15.7,3.7,16.1,3.5,16.7z M6.6,6c0.3-0.3,0.6-0.3,1-0.3
		c0.5-0.1,0.7,0.2,0.9,0.6C8.7,6.9,9,7.6,9.3,8.2c0.1,0.2,0.1,0.4-0.1,0.6C9,9.1,8.8,9.4,8.6,9.6c-0.2,0.2-0.2,0.3,0,0.6
		c0.9,1.5,2.1,2.5,3.7,3.2c0.2,0.1,0.4,0,0.5-0.1c0.3-0.3,0.5-0.7,0.8-1c0.2-0.2,0.3-0.3,0.6-0.2c0.8,0.3,1.5,0.7,2.3,1.1
		c0.1,0,0.2,0.2,0.2,0.3c-0.2,1.2-0.6,1.7-1.8,2.2c-0.7,0.3-1.4,0.2-2.1,0c-2.6-0.7-4.5-2.4-6-4.5C6.3,10.5,5.9,9.8,5.7,9
		C5.4,7.8,5.7,6.8,6.6,6z"/>
</g>
</svg>
