<?xml version="1.0" encoding="UTF-8"?><svg id="Capa_1" xmlns="http://www.w3.org/2000/svg" viewBox="0 0 141.5 16"><defs><style>.cls-1{fill:#fff;}</style></defs><path class="cls-1" d="m63.03.39c.39-.39,1.02-.39,1.41,0l6.29,6.29,6.29-6.29c.38-.4,1.02-.41,1.41-.02.4.38.41,1.02.02,1.41,0,0-.02.02-.02.02l-6.29,6.29,6.29,6.29c.38.4.37,1.03-.02,1.41-.39.37-1,.37-1.39,0l-6.29-6.29-6.29,6.29c-.4.38-1.03.37-1.41-.02-.37-.39-.37-1,0-1.39l6.29-6.29-6.29-6.29c-.39-.39-.39-1.02,0-1.41Z"/><rect class="cls-1" x="4.2" y="3.24" width="52.79" height="2" rx="1" ry="1"/><rect class="cls-1" x="4.2" y="7.15" width="52.79" height="2" rx="1" ry="1"/><rect class="cls-1" x="4.2" y="11.06" width="52.79" height="2" rx="1" ry="1"/><rect class="cls-1" x="84.51" y="3.24" width="52.79" height="2" rx="1" ry="1"/><rect class="cls-1" x="84.51" y="7.15" width="52.79" height="2" rx="1" ry="1"/><rect class="cls-1" x="84.51" y="11.06" width="52.79" height="2" rx="1" ry="1"/></svg>