<?xml version="1.0" encoding="utf-8"?>
<!-- Generator: Adobe Illustrator 28.0.0, SVG Export Plug-In . SVG Version: 6.00 Build 0)  -->
<svg version="1.1" id="Capa_1" xmlns="http://www.w3.org/2000/svg" xmlns:xlink="http://www.w3.org/1999/xlink" x="0px" y="0px"
	 viewBox="0 0 528.2 366.4" style="enable-background:new 0 0 528.2 366.4;" xml:space="preserve">
<style type="text/css">
	.st0{opacity:0.5;}
	.st1{fill:#FFFFFF;}
	.st2{fill:#0B6EAF;}
</style>
<g class="st0">
</g>
<g>
	<polygon class="st1" points="104.9,366.4 237.1,0 186.3,0 54,366.4 	"/>
	<polygon class="st2" points="396,366.4 528.2,0 235.4,0 103.3,366.4 	"/>
	<polygon class="st2" points="58.1,366.4 190.3,0 133.4,0 1.1,366.4 	"/>
	<path class="st1" d="M286.2,222c5,4.3,10.6,0.6,16.2,2.6c-1.1,1.6-1.9,3.3-3.1,4.4c-5.1,4.9-11.4,6.7-18.3,6.5c-0.7,0-2-1.3-2-2
		c0-2.2-1.3-2.2-3-2.6c-3.2-0.7-6.7-1.2-9.4-2.9c-3.8-2.3-7.8-2.6-12-2.8c-1.8-0.1-3.6,0-5.7,0c0.3-2.9,0.3-5.4,0.8-7.9
		c0.6-2.8,0.1-5.3-0.8-8c-1.2-3.5-1.8-7.4-2.1-11.2c-0.2-2.7-0.4-4.6-4.4-3.8c0.5-2.6,0.8-4.8,1.4-6.9c1.6-5.9,5.5-10.2,10.3-13.7
		c0.8-0.6,2.2-0.4,3.4-0.6c0,1,0.1,1.9,0.1,2.9c-0.2,2.8-0.3,5.7-0.7,8.5c-0.3,1.8-0.7,3.8-1.7,5.3c-2.9,4.1,0.8,14.7,5.8,15.9
		c0.6,0.1,1.5-0.2,2-0.6c11.6-9.3,23.2-18.6,35.1-28.1c-1.5-1.4-2.9-2.7-4.3-4c-2.2,1.4-4.4,4.8-7.2,1.6c-2.3-2.5,0.1-4.5,1.9-6.5
		c-1.7-1.8-3-3.3-6.1-2.7c-5,1-9.6-2.9-10.7-8.2c-0.8-4,1.9-8.2,6.1-9.4c5.8-1.7,12.4,3,11.9,9.2c-0.3,3.6,1.9,4.5,3.9,6.1
		c2-1.6,4-4,6.5-1.6c2,1.9,0.9,4.2-0.8,6c5.9,5.4,4.1,5.4,10.9-0.4c-1.4-1.9-3-4.2-0.7-6.2c2.5-2.2,4.5,0.2,6.5,1.7
		c1.9-1.7,4.3-2.4,3.8-6.1c-0.7-4.7,4-9.1,8.8-9.5c4.6-0.4,8.3,2.6,9.2,7.2c1.1,5.8-4.4,11.7-10.6,10.8c-2.9-0.4-4.4,0.6-6,2.7
		c1.4,2.1,4.3,4.1,1.5,6.8c-2.8,2.6-4.7-0.5-7-2c-1.6,1.5-3.2,3-5,4.6c5.9,4.7,11.6,9.3,17.3,13.9c5.8,4.7,11.7,9.2,17.4,14
		c2.2,1.8,3.9,1.5,5.7-0.3c3.4-3.3,4.2-7.5,4.4-12c0-0.4,0-0.9-0.2-1.1c-3.2-2.7-2.5-6.3-2.6-9.8c-0.1-1.7-0.5-3.4-0.6-5.1
		c-0.1-1,0.1-2.1,0.2-3.1c1.1,0.2,2.3,0.2,3.1,0.7c4.7,3.3,8.4,7.5,10.1,13.1c0.7,2.2,1,4.6,1.5,6.8c-4.1,1.2-3.8,1.3-4.4,5.3
		c-0.6,4.2-2.2,8.3-2.8,12.5c-0.4,3.1,0.1,6.3,0.3,9.5c0.1,1.3,0.3,2.6,0.5,4.4c-3.6,0-7-0.2-10.2,0.1c-1.7,0.1-3.6,0.7-5,1.5
		c-3.8,2.2-7.8,4-12.3,4.1c-1.6,0-2.3,0.5-2.5,2.3c-0.1,0.9-1.3,2.3-2,2.3c-7.2,0-13.8-1.6-18.9-7.1c-0.9-1-1.6-2.3-2.5-3.7
		c5.3-2.5,11.1,1.6,15.9-2.4c2.6,3.8,5.8,2.4,8.8,0.9c2.2-1.1,4.3-2.5,6.2-4.1c2.9-2.3,2.9-3.6,0.1-6.2c-6.2-5.7-12.4-11.3-18.6-17
		c-5-4.6-10-9.1-15.1-13.8c-8.5,7.8-16.9,15.5-25.3,23.1c-2.7,2.5-5.5,5-8.2,7.6c-2.2,2.1-2.2,3.6,0.2,5.4c2.5,1.9,5.1,3.7,7.9,5
		C281.5,224.8,284.5,226,286.2,222z M329.4,159.3c-0.4,0.4-0.8,0.8-1.2,1.2c3.8-1.1,5.4-2.6,5.1-5c-0.3-2.1-1.6-3.4-3.7-3.7
		c-2.3-0.3-4.3,1.6-5.2,4.9c0.6-0.6,1.1-1.1,1.7-1.7C327.2,156.5,328.2,157.9,329.4,159.3z M280.9,161c1.4-1.5,2.7-2.9,4.1-4.3
		c-1.2-3.2-2.9-4.7-5.3-4.3c-2,0.3-3.2,1.6-3.5,3.6C275.8,158.4,277.2,159.8,280.9,161z"/>
	<g>
		<g>
			<path class="st1" d="M234.4,111.9c2.1-1.2,3.9-1.5,5.6-1c1.6,0.5,3,1.8,4.2,3.8c0.6,1,1,2,1.2,3s0.3,1.9,0.1,2.8
				c-0.2,0.9-0.6,1.7-1.2,2.5s-1.4,1.5-2.5,2.1l-1.1,0.6l4.2,7.2l-3.9,2.3l-11.7-20.4L234.4,111.9z M236.1,115.4l-1,0.6l3.7,6.5
				l0.7-0.4c0.6-0.4,1.1-0.8,1.4-1.2c0.3-0.5,0.4-1,0.3-1.7c-0.1-0.6-0.4-1.4-0.8-2.2c-0.6-1-1.2-1.7-1.9-1.9
				C237.7,114.8,236.9,115,236.1,115.4z"/>
			<path class="st1" d="M250.7,103.9c1.6-0.7,3-1,4.3-0.9c1.3,0,2.3,0.4,3.2,1.1c0.9,0.7,1.6,1.8,2.2,3.2c0.4,0.9,0.6,1.8,0.7,2.6
				c0.1,0.8,0,1.6-0.2,2.4c-0.2,0.8-0.6,1.5-1.2,2.2l8.4,7.8l-4.6,1.9l-7.1-7.1l-1.3,0.5l3.5,8.5l-4.2,1.7l-8.9-21.8L250.7,103.9z
				 M252.1,107.5l-0.9,0.3l2.6,6.4l0.9-0.4c0.9-0.4,1.5-1,1.8-1.7s0.1-1.7-0.3-2.9c-0.4-1-1-1.7-1.6-2
				C253.9,107,253.1,107.1,252.1,107.5z"/>
			<path class="st1" d="M279.8,119.3l-10.2,2.7l-6.1-22.8l10.2-2.7l1,3.7l-5.9,1.6l1.4,5.4l5.4-1.5l1,3.7l-5.4,1.5l1.6,6.1l5.9-1.6
				L279.8,119.3z"/>
			<path class="st1" d="M287,118.1l-4.5,0.7L279,95.5l10.4-1.5l0.6,3.8l-5.9,0.9l0.9,6.3l5.5-0.8l0.6,3.8l-5.5,0.8L287,118.1z"/>
			<path class="st1" d="M306,116.6l-10.6,0.4l-0.8-23.5l10.6-0.4l0.1,3.8l-6.1,0.2l0.2,5.5l5.6-0.2l0.1,3.9l-5.6,0.2l0.2,6.4
				l6.1-0.2L306,116.6z"/>
			<path class="st1" d="M318.5,97.5c-0.7-0.1-1.3,0.1-1.8,0.5s-1,0.9-1.4,1.6c-0.4,0.7-0.7,1.6-1,2.6s-0.4,2.1-0.5,3.3
				c-0.1,1.7-0.1,3.2,0.1,4.5c0.2,1.2,0.6,2.2,1.2,2.9c0.6,0.7,1.3,1.1,2.3,1.1c0.7,0.1,1.4,0,2.1-0.2s1.3-0.4,2-0.7l-0.3,4
				c-0.7,0.3-1.5,0.5-2.2,0.7s-1.6,0.2-2.5,0.1c-1.8-0.1-3.2-0.7-4.4-1.8c-1.2-1-2-2.5-2.5-4.3s-0.6-4.1-0.4-6.6
				c0.1-1.8,0.5-3.4,1-4.8c0.5-1.4,1.1-2.7,2-3.7c0.8-1,1.8-1.8,2.9-2.3c1.1-0.5,2.3-0.7,3.7-0.6c0.9,0.1,1.8,0.3,2.7,0.6
				s1.7,0.7,2.4,1.3l-1.6,3.6c-0.5-0.4-1.1-0.8-1.7-1.1C319.9,97.7,319.2,97.5,318.5,97.5z"/>
			<path class="st1" d="M331,119.7l-4.4-0.9l4-19.2l-4.3-0.9l0.8-3.8l12.9,2.7l-0.8,3.8l-4.3-0.9L331,119.7z"/>
			<path class="st1" d="M358.6,103.7l-5.3,14.9c-0.6,1.7-1.4,3-2.3,4c-0.9,0.9-2,1.5-3.2,1.7s-2.6,0-4.1-0.5c-2.2-0.8-3.7-2-4.4-3.7
				s-0.7-3.8,0.2-6.3l5.3-15l4.3,1.5l-5.2,14.8c-0.5,1.4-0.6,2.5-0.4,3.3c0.2,0.8,0.8,1.3,1.6,1.6c0.6,0.2,1.1,0.3,1.6,0.1
				c0.5-0.1,0.9-0.4,1.3-0.9c0.4-0.5,0.8-1.2,1.1-2.2l5.2-14.8L358.6,103.7z"/>
			<path class="st1" d="M369.6,108.9c1.5,0.8,2.7,1.7,3.5,2.7s1.2,2.1,1.2,3.2c0,1.2-0.3,2.4-1,3.8c-0.4,0.9-1,1.6-1.5,2.2
				c-0.6,0.6-1.2,1-2,1.4c-0.7,0.3-1.5,0.5-2.4,0.5l-0.5,11.4l-4.4-2.3l0.9-10l-1.2-0.6l-4.3,8.2l-4-2.1l11-20.9L369.6,108.9z
				 M367.8,112.3l-0.8-0.4l-3.2,6.1l0.9,0.5c0.9,0.5,1.7,0.6,2.5,0.3c0.7-0.3,1.4-1,2-2.1c0.5-1,0.7-1.8,0.4-2.5
				C369.2,113.4,368.7,112.8,367.8,112.3z"/>
			<path class="st1" d="M376.4,141l2.3-5.3l-4.3-3.1l-4.3,3.9l-3.9-2.8l18.4-15.8l4.8,3.4l-9,22.5L376.4,141z M380.4,132.1l2.6-5.8
				c0.2-0.5,0.5-0.9,0.7-1.4c0.2-0.4,0.4-0.9,0.6-1.3c0.2-0.4,0.4-0.8,0.6-1.1c-0.2,0.3-0.5,0.6-0.8,0.9c-0.3,0.3-0.7,0.7-1,1
				c-0.4,0.3-0.7,0.7-1.1,1l-4.7,4.4L380.4,132.1z"/>
		</g>
	</g>
</g>
<g>
	<path class="st1" d="M203.9,241.1l-2.4-4.7l11.4-13.7l-0.1-0.1c-0.6,0.4-1.3,0.8-1.8,1.1c-0.6,0.3-1.1,0.6-1.6,0.9
		s-0.9,0.5-1.3,0.7l-9.7,5l-1.9-3.8l20.9-10.8l2.4,4.7l-11.1,13.5l0.1,0.1c0.6-0.4,1.2-0.7,1.8-1.1c0.6-0.3,1.1-0.6,1.5-0.9
		c0.5-0.3,0.9-0.5,1.3-0.7l9.5-4.9l2,3.8L203.9,241.1z"/>
	<path class="st1" d="M214.2,255.1l3.7-4.5l-3.2-4.1l-5.2,2.5l-3-3.8l22.1-10l3.6,4.6l-15,19L214.2,255.1z M220.6,247.7l4.1-4.8
		c0.4-0.4,0.7-0.8,1-1.1c0.3-0.4,0.7-0.7,1-1.1c0.3-0.3,0.6-0.6,0.9-0.9c-0.3,0.2-0.7,0.4-1.1,0.6s-0.8,0.5-1.3,0.7
		c-0.4,0.2-0.9,0.5-1.4,0.7l-5.7,2.9L220.6,247.7z"/>
	<path class="st1" d="M247.3,254.9L227,268.3l-3.8-3.5l11.7-21.3l3.5,3.2l-6.9,11.7c-0.3,0.4-0.6,0.9-0.9,1.5
		c-0.4,0.6-0.7,1.1-1.1,1.7c-0.4,0.5-0.7,1-1,1.4c0.4-0.3,0.8-0.7,1.3-1.1c0.5-0.4,1-0.8,1.6-1.2c0.5-0.4,1-0.7,1.4-1l11.1-7.8
		L247.3,254.9z"/>
	<path class="st1" d="M243.8,280.6l2.1-5.4l-4.4-2.9l-4.1,4.1l-4.1-2.7l17.6-16.6l4.9,3.2l-8,22.9L243.8,280.6z M247.4,271.5
		l2.3-5.9c0.2-0.5,0.4-0.9,0.6-1.4s0.4-0.9,0.6-1.3c0.2-0.4,0.4-0.8,0.5-1.2c-0.2,0.3-0.5,0.6-0.8,1c-0.3,0.3-0.6,0.7-1,1.1
		c-0.3,0.4-0.7,0.7-1.1,1.1l-4.5,4.6L247.4,271.5z"/>
	<path class="st1" d="M251.8,285.1l9.8-21.4l4.1,1.9l-8.1,17.9l5.7,2.6l-1.6,3.6L251.8,285.1z"/>
	<path class="st1" d="M282.8,295.5v-5.8l-5.1-1.1l-2.4,5.3l-4.7-1.1l10.7-21.8l5.7,1.3l0.5,24.3L282.8,295.5z M283,285.8l0.1-6.4
		c0-0.5,0.1-1,0.1-1.5s0.1-1,0.1-1.4c0-0.5,0.1-0.9,0.1-1.3c-0.1,0.4-0.3,0.8-0.4,1.2c-0.2,0.4-0.3,0.9-0.5,1.3
		c-0.2,0.5-0.4,0.9-0.6,1.4l-2.6,5.9L283,285.8z"/>
	<path class="st1" d="M298.8,273.8c1.7,0.1,3.2,0.4,4.3,1c1.1,0.6,1.9,1.4,2.4,2.4s0.7,2.3,0.6,3.8c-0.1,1-0.2,1.8-0.5,2.6
		s-0.7,1.5-1.2,2.1c-0.5,0.6-1.2,1.1-2,1.5l4.3,10.6l-5-0.3l-3.4-9.4l-1.4-0.1l-0.5,9.2l-4.5-0.2l1.2-23.5L298.8,273.8z
		 M298.5,277.6h-0.9l-0.4,6.9l1,0.1c1,0.1,1.8-0.2,2.3-0.8c0.6-0.6,0.9-1.5,0.9-2.7c0.1-1.1-0.2-1.9-0.7-2.5
		C300.5,278,299.7,277.6,298.5,277.6z"/>
	<path class="st1" d="M317.7,283.5l7.3-0.9l1.5,12.2c-1.1,0.6-2.2,1-3.3,1.4c-1.1,0.4-2.3,0.6-3.5,0.7c-1.9,0.2-3.6-0.1-5-0.9
		c-1.4-0.8-2.6-2.1-3.4-3.8c-0.9-1.7-1.5-3.8-1.8-6.3c-0.3-2.4-0.2-4.6,0.4-6.5c0.5-1.9,1.4-3.4,2.8-4.5c1.4-1.1,3-1.9,5.1-2.1
		c1.1-0.1,2.2-0.1,3.2,0c1,0.2,1.9,0.4,2.8,0.7l-0.9,3.9c-0.7-0.3-1.5-0.6-2.2-0.7c-0.7-0.1-1.5-0.2-2.3-0.1c-1.1,0.1-2,0.6-2.7,1.3
		s-1.1,1.7-1.4,3c-0.2,1.3-0.3,2.8,0,4.6c0.2,1.6,0.5,3,1,4.2s1.1,2.1,1.8,2.6c0.7,0.6,1.6,0.8,2.6,0.7c0.4,0,0.8-0.1,1.2-0.2
		c0.4-0.1,0.7-0.2,1.1-0.4l-0.7-5.4l-2.9,0.3L317.7,283.5z"/>
	<path class="st1" d="M342.9,291.3l-10.2,2.9l-6.5-22.6l10.2-2.9l1.1,3.7l-5.8,1.7l1.5,5.3l5.4-1.6l1.1,3.7l-5.4,1.6l1.8,6.1
		l5.8-1.7L342.9,291.3z"/>
	<path class="st1" d="M363.2,282.3l-4.8,2.3L345,272.8l-0.1,0.1c0.4,0.7,0.7,1.3,1.1,1.9c0.3,0.6,0.6,1.1,0.9,1.6
		c0.3,0.5,0.5,0.9,0.7,1.4l4.8,9.8l-3.8,1.8l-10.3-21.2l4.8-2.3l13.2,11.5l0.1-0.1c-0.4-0.6-0.7-1.3-1-1.8c-0.3-0.6-0.6-1.1-0.8-1.6
		c-0.3-0.5-0.5-0.9-0.7-1.3l-4.7-9.6l3.8-1.9L363.2,282.3z"/>
	<path class="st1" d="M374.8,274.4l-3.6,2.6l-11.4-16l-3.6,2.5l-2.3-3.2l10.7-7.7l2.3,3.2l-3.5,2.5L374.8,274.4z"/>
	<path class="st1" d="M381.5,269.1l-15.7-17.6l3.4-3l15.7,17.5L381.5,269.1z"/>
	<path class="st1" d="M400.1,249.3l-3.4,4.1l-17-5.3l-0.1,0.1c0.6,0.4,1.2,0.9,1.7,1.3s1,0.8,1.5,1.1c0.4,0.3,0.8,0.7,1.2,1l8.4,7
		l-2.7,3.2l-18-15.2l3.4-4l16.7,5.1l0.1-0.1c-0.6-0.4-1.1-0.9-1.7-1.2c-0.5-0.4-1-0.7-1.4-1.1c-0.4-0.3-0.8-0.6-1.2-0.9l-8.2-6.9
		l2.7-3.3L400.1,249.3z"/>
	<path class="st1" d="M409.1,234.4l-5.5-1.7l-2.6,4.6l4.3,3.9l-2.4,4.2l-17.7-16.7l2.9-5.1l23.4,6.6L409.1,234.4z M399.8,231.3
		l-6.1-2c-0.5-0.2-1-0.4-1.4-0.5c-0.5-0.2-0.9-0.3-1.4-0.5c-0.4-0.2-0.8-0.3-1.2-0.5c0.3,0.2,0.6,0.5,1,0.7c0.4,0.3,0.7,0.6,1.1,0.9
		c0.4,0.3,0.8,0.6,1.2,1l4.9,4.2L399.8,231.3z"/>
</g>
</svg>
